<mxfile host="app.diagrams.net" agent="Mozilla/5.0 (X11; Linux x86_64; rv:136.0) Gecko/20100101 Firefox/136.0" version="26.1.3">
  <diagram id="C5RBs43oDa-KdzZeNtuy" name="Page-1">
    <mxGraphModel dx="2223" dy="850" grid="1" gridSize="10" guides="1" tooltips="1" connect="1" arrows="1" fold="1" page="1" pageScale="1" pageWidth="827" pageHeight="1169" math="0" shadow="0">
      <root>
        <mxCell id="WIyWlLk6GJQsqaUBKTNV-0" />
        <mxCell id="WIyWlLk6GJQsqaUBKTNV-1" parent="WIyWlLk6GJQsqaUBKTNV-0" />
        <mxCell id="QFqRmcgoc48EMrTDS77r-42" value="" style="rounded=1;whiteSpace=wrap;html=1;fillColor=#f8cecc;strokeColor=#b85450;" parent="WIyWlLk6GJQsqaUBKTNV-1" vertex="1">
          <mxGeometry x="-100" width="430" height="220" as="geometry" />
        </mxCell>
        <mxCell id="QFqRmcgoc48EMrTDS77r-45" value="" style="rounded=1;whiteSpace=wrap;html=1;fillColor=#d5e8d4;strokeColor=#82b366;" parent="WIyWlLk6GJQsqaUBKTNV-1" vertex="1">
          <mxGeometry x="710" width="300" height="215" as="geometry" />
        </mxCell>
        <mxCell id="QFqRmcgoc48EMrTDS77r-41" value="" style="rounded=1;whiteSpace=wrap;html=1;fillColor=#fff2cc;strokeColor=#d6b656;" parent="WIyWlLk6GJQsqaUBKTNV-1" vertex="1">
          <mxGeometry x="376" width="298" height="220" as="geometry" />
        </mxCell>
        <mxCell id="c7uLgKNMIQA-5B7GpuEY-1" value="Defender" style="rounded=0;whiteSpace=wrap;html=1;fillColor=#f8cecc;strokeColor=#b85450;" parent="WIyWlLk6GJQsqaUBKTNV-1" vertex="1">
          <mxGeometry x="110" y="260" width="120" height="60" as="geometry" />
        </mxCell>
        <mxCell id="c7uLgKNMIQA-5B7GpuEY-2" value="Builder" style="rounded=0;whiteSpace=wrap;html=1;fillColor=#fff2cc;strokeColor=#d6b656;" parent="WIyWlLk6GJQsqaUBKTNV-1" vertex="1">
          <mxGeometry x="464.25" y="260" width="120" height="60" as="geometry" />
        </mxCell>
        <mxCell id="c7uLgKNMIQA-5B7GpuEY-3" value="Gardener" style="rounded=0;whiteSpace=wrap;html=1;fillColor=#d5e8d4;strokeColor=#82b366;" parent="WIyWlLk6GJQsqaUBKTNV-1" vertex="1">
          <mxGeometry x="800" y="260" width="120" height="60" as="geometry" />
        </mxCell>
        <mxCell id="c7uLgKNMIQA-5B7GpuEY-7" value="&lt;div&gt;Sorts&lt;br&gt;Couts : Electricité&lt;/div&gt;" style="ellipse;whiteSpace=wrap;html=1;aspect=fixed;" parent="WIyWlLk6GJQsqaUBKTNV-1" vertex="1">
          <mxGeometry x="130" y="380" width="80" height="80" as="geometry" />
        </mxCell>
        <mxCell id="c7uLgKNMIQA-5B7GpuEY-9" value="&lt;div&gt;Chargés&lt;br&gt;+ puissants&lt;br&gt;Besoin d&#39;une source d&#39;electricite ?&lt;/div&gt;" style="rounded=1;whiteSpace=wrap;html=1;" parent="WIyWlLk6GJQsqaUBKTNV-1" vertex="1">
          <mxGeometry x="40" y="495" width="120" height="60" as="geometry" />
        </mxCell>
        <mxCell id="c7uLgKNMIQA-5B7GpuEY-10" value="&lt;div&gt;Déchargé&lt;br&gt;- puissants&lt;br&gt;Source moindre ou pas nécéssaire &lt;br&gt;&lt;/div&gt;" style="rounded=1;whiteSpace=wrap;html=1;" parent="WIyWlLk6GJQsqaUBKTNV-1" vertex="1">
          <mxGeometry x="180" y="495" width="120" height="60" as="geometry" />
        </mxCell>
        <mxCell id="c7uLgKNMIQA-5B7GpuEY-14" value="&lt;div&gt;Production&lt;/div&gt;&amp;nbsp;primaire" style="ellipse;whiteSpace=wrap;html=1;aspect=fixed;" parent="WIyWlLk6GJQsqaUBKTNV-1" vertex="1">
          <mxGeometry x="484.25" y="372.5" width="80" height="80" as="geometry" />
        </mxCell>
        <mxCell id="c7uLgKNMIQA-5B7GpuEY-15" value="Eau" style="rounded=1;whiteSpace=wrap;html=1;" parent="WIyWlLk6GJQsqaUBKTNV-1" vertex="1">
          <mxGeometry x="535" y="500" width="76" height="60" as="geometry" />
        </mxCell>
        <mxCell id="c7uLgKNMIQA-5B7GpuEY-16" value="Electricité" style="rounded=1;whiteSpace=wrap;html=1;" parent="WIyWlLk6GJQsqaUBKTNV-1" vertex="1">
          <mxGeometry x="439" y="500" width="76" height="60" as="geometry" />
        </mxCell>
        <mxCell id="c7uLgKNMIQA-5B7GpuEY-17" value="Dépollution" style="rounded=1;whiteSpace=wrap;html=1;" parent="WIyWlLk6GJQsqaUBKTNV-1" vertex="1">
          <mxGeometry x="481" y="575" width="76" height="60" as="geometry" />
        </mxCell>
        <mxCell id="c7uLgKNMIQA-5B7GpuEY-18" value="&lt;div&gt;Recolte / Terraformation&lt;/div&gt;&lt;div&gt;&lt;br&gt;&lt;/div&gt;" style="ellipse;whiteSpace=wrap;html=1;aspect=fixed;" parent="WIyWlLk6GJQsqaUBKTNV-1" vertex="1">
          <mxGeometry x="820" y="372.5" width="80" height="80" as="geometry" />
        </mxCell>
        <mxCell id="c7uLgKNMIQA-5B7GpuEY-19" value="Changer / Aménager les tiles : Bonus &quot;permanents&quot; autour des plantes" style="rounded=1;whiteSpace=wrap;html=1;" parent="WIyWlLk6GJQsqaUBKTNV-1" vertex="1">
          <mxGeometry x="735" y="492.5" width="120" height="60" as="geometry" />
        </mxCell>
        <mxCell id="c7uLgKNMIQA-5B7GpuEY-21" value="Récolter pour permettre aux autres factions de s&#39;ameliorer" style="rounded=1;whiteSpace=wrap;html=1;" parent="WIyWlLk6GJQsqaUBKTNV-1" vertex="1">
          <mxGeometry x="865" y="495" width="120" height="60" as="geometry" />
        </mxCell>
        <mxCell id="QFqRmcgoc48EMrTDS77r-21" value="" style="edgeStyle=orthogonalEdgeStyle;rounded=0;orthogonalLoop=1;jettySize=auto;html=1;" parent="WIyWlLk6GJQsqaUBKTNV-1" source="c7uLgKNMIQA-5B7GpuEY-22" target="QFqRmcgoc48EMrTDS77r-18" edge="1">
          <mxGeometry relative="1" as="geometry" />
        </mxCell>
        <mxCell id="c7uLgKNMIQA-5B7GpuEY-22" value="Explorer" style="triangle;whiteSpace=wrap;html=1;" parent="WIyWlLk6GJQsqaUBKTNV-1" vertex="1">
          <mxGeometry x="-80" y="10" width="60" height="80" as="geometry" />
        </mxCell>
        <mxCell id="QFqRmcgoc48EMrTDS77r-22" value="" style="edgeStyle=orthogonalEdgeStyle;rounded=0;orthogonalLoop=1;jettySize=auto;html=1;" parent="WIyWlLk6GJQsqaUBKTNV-1" source="c7uLgKNMIQA-5B7GpuEY-24" target="QFqRmcgoc48EMrTDS77r-19" edge="1">
          <mxGeometry relative="1" as="geometry" />
        </mxCell>
        <mxCell id="c7uLgKNMIQA-5B7GpuEY-24" value="Utiliser les sorts" style="triangle;whiteSpace=wrap;html=1;" parent="WIyWlLk6GJQsqaUBKTNV-1" vertex="1">
          <mxGeometry y="10" width="60" height="80" as="geometry" />
        </mxCell>
        <mxCell id="QFqRmcgoc48EMrTDS77r-23" value="" style="edgeStyle=orthogonalEdgeStyle;rounded=0;orthogonalLoop=1;jettySize=auto;html=1;" parent="WIyWlLk6GJQsqaUBKTNV-1" source="c7uLgKNMIQA-5B7GpuEY-25" target="QFqRmcgoc48EMrTDS77r-20" edge="1">
          <mxGeometry relative="1" as="geometry" />
        </mxCell>
        <mxCell id="c7uLgKNMIQA-5B7GpuEY-25" value="Recolter les loots" style="triangle;whiteSpace=wrap;html=1;" parent="WIyWlLk6GJQsqaUBKTNV-1" vertex="1">
          <mxGeometry x="80" y="10" width="60" height="80" as="geometry" />
        </mxCell>
        <mxCell id="c7uLgKNMIQA-5B7GpuEY-26" value="&lt;div&gt;Placer les sources de production&lt;/div&gt;sur le terrain adapté" style="triangle;whiteSpace=wrap;html=1;" parent="WIyWlLk6GJQsqaUBKTNV-1" vertex="1">
          <mxGeometry x="398" y="25" width="72" height="90" as="geometry" />
        </mxCell>
        <mxCell id="c7uLgKNMIQA-5B7GpuEY-27" value="Acheminer la production vers les autres factions" style="triangle;whiteSpace=wrap;html=1;" parent="WIyWlLk6GJQsqaUBKTNV-1" vertex="1">
          <mxGeometry x="490.5" y="25" width="67.5" height="90" as="geometry" />
        </mxCell>
        <mxCell id="c7uLgKNMIQA-5B7GpuEY-28" value="Trouver des combos de batiments pour ameliorer la production" style="triangle;whiteSpace=wrap;html=1;" parent="WIyWlLk6GJQsqaUBKTNV-1" vertex="1">
          <mxGeometry x="578.5" y="30" width="72" height="80" as="geometry" />
        </mxCell>
        <mxCell id="sBj8BA107kENnDJZsWmS-2" value="" style="endArrow=classic;html=1;rounded=0;exitX=0.5;exitY=0;exitDx=0;exitDy=0;entryX=0.5;entryY=1;entryDx=0;entryDy=0;" parent="WIyWlLk6GJQsqaUBKTNV-1" source="c7uLgKNMIQA-5B7GpuEY-16" target="c7uLgKNMIQA-5B7GpuEY-1" edge="1">
          <mxGeometry width="50" height="50" relative="1" as="geometry">
            <mxPoint x="390" y="370" as="sourcePoint" />
            <mxPoint x="290" y="310" as="targetPoint" />
          </mxGeometry>
        </mxCell>
        <mxCell id="sBj8BA107kENnDJZsWmS-3" value="" style="endArrow=classic;html=1;rounded=0;entryX=0.5;entryY=1;entryDx=0;entryDy=0;exitX=0.5;exitY=0;exitDx=0;exitDy=0;" parent="WIyWlLk6GJQsqaUBKTNV-1" source="c7uLgKNMIQA-5B7GpuEY-15" target="c7uLgKNMIQA-5B7GpuEY-3" edge="1">
          <mxGeometry width="50" height="50" relative="1" as="geometry">
            <mxPoint x="390" y="370" as="sourcePoint" />
            <mxPoint x="440" y="320" as="targetPoint" />
          </mxGeometry>
        </mxCell>
        <mxCell id="sBj8BA107kENnDJZsWmS-4" value="" style="endArrow=none;dashed=1;html=1;rounded=0;exitX=0.5;exitY=0;exitDx=0;exitDy=0;entryX=0.5;entryY=1;entryDx=0;entryDy=0;" parent="WIyWlLk6GJQsqaUBKTNV-1" source="c7uLgKNMIQA-5B7GpuEY-15" target="c7uLgKNMIQA-5B7GpuEY-1" edge="1">
          <mxGeometry width="50" height="50" relative="1" as="geometry">
            <mxPoint x="470" y="550" as="sourcePoint" />
            <mxPoint x="440" y="320" as="targetPoint" />
          </mxGeometry>
        </mxCell>
        <mxCell id="sBj8BA107kENnDJZsWmS-5" value="" style="endArrow=none;dashed=1;html=1;dashPattern=1 3;strokeWidth=2;rounded=0;entryX=0.5;entryY=1;entryDx=0;entryDy=0;exitX=0.5;exitY=0;exitDx=0;exitDy=0;" parent="WIyWlLk6GJQsqaUBKTNV-1" source="c7uLgKNMIQA-5B7GpuEY-16" target="c7uLgKNMIQA-5B7GpuEY-3" edge="1">
          <mxGeometry width="50" height="50" relative="1" as="geometry">
            <mxPoint x="390" y="370" as="sourcePoint" />
            <mxPoint x="440" y="320" as="targetPoint" />
          </mxGeometry>
        </mxCell>
        <mxCell id="QFqRmcgoc48EMrTDS77r-15" value="Choix des sorts" style="rhombus;whiteSpace=wrap;html=1;" parent="WIyWlLk6GJQsqaUBKTNV-1" vertex="1">
          <mxGeometry x="150" y="130" width="80" height="80" as="geometry" />
        </mxCell>
        <mxCell id="QFqRmcgoc48EMrTDS77r-18" value="Déplacement" style="rhombus;whiteSpace=wrap;html=1;" parent="WIyWlLk6GJQsqaUBKTNV-1" vertex="1">
          <mxGeometry x="-90" y="130" width="80" height="80" as="geometry" />
        </mxCell>
        <mxCell id="QFqRmcgoc48EMrTDS77r-19" value="Lancer des sorts" style="rhombus;whiteSpace=wrap;html=1;" parent="WIyWlLk6GJQsqaUBKTNV-1" vertex="1">
          <mxGeometry x="-10" y="130" width="80" height="80" as="geometry" />
        </mxCell>
        <mxCell id="QFqRmcgoc48EMrTDS77r-20" value="Déplacement sur les loot" style="rhombus;whiteSpace=wrap;html=1;" parent="WIyWlLk6GJQsqaUBKTNV-1" vertex="1">
          <mxGeometry x="70" y="130" width="80" height="80" as="geometry" />
        </mxCell>
        <mxCell id="QFqRmcgoc48EMrTDS77r-26" value="" style="edgeStyle=orthogonalEdgeStyle;rounded=0;orthogonalLoop=1;jettySize=auto;html=1;" parent="WIyWlLk6GJQsqaUBKTNV-1" source="QFqRmcgoc48EMrTDS77r-24" target="QFqRmcgoc48EMrTDS77r-25" edge="1">
          <mxGeometry relative="1" as="geometry" />
        </mxCell>
        <mxCell id="QFqRmcgoc48EMrTDS77r-24" value="Evénéments aléatoires&lt;br&gt;Pour permettre aux joueurs de prendre du recul sur leurs decisions" style="rounded=1;whiteSpace=wrap;html=1;" parent="WIyWlLk6GJQsqaUBKTNV-1" vertex="1">
          <mxGeometry x="-190" y="250" width="180" height="90" as="geometry" />
        </mxCell>
        <mxCell id="QFqRmcgoc48EMrTDS77r-29" value="" style="edgeStyle=orthogonalEdgeStyle;rounded=0;orthogonalLoop=1;jettySize=auto;html=1;" parent="WIyWlLk6GJQsqaUBKTNV-1" source="QFqRmcgoc48EMrTDS77r-25" target="QFqRmcgoc48EMrTDS77r-28" edge="1">
          <mxGeometry relative="1" as="geometry" />
        </mxCell>
        <mxCell id="QFqRmcgoc48EMrTDS77r-25" value="Réunion &quot;de crise&quot; ou une decision doit être prise a la fin de la reunion" style="whiteSpace=wrap;html=1;rounded=1;" parent="WIyWlLk6GJQsqaUBKTNV-1" vertex="1">
          <mxGeometry x="-160" y="395" width="120" height="60" as="geometry" />
        </mxCell>
        <mxCell id="QFqRmcgoc48EMrTDS77r-28" value="Unanimité des joueurs / Vote ?&lt;br&gt;Un vote peu concerner une seule faction" style="whiteSpace=wrap;html=1;rounded=1;" parent="WIyWlLk6GJQsqaUBKTNV-1" vertex="1">
          <mxGeometry x="-165" y="475" width="130" height="70" as="geometry" />
        </mxCell>
        <mxCell id="QFqRmcgoc48EMrTDS77r-31" value="" style="edgeStyle=orthogonalEdgeStyle;rounded=0;orthogonalLoop=1;jettySize=auto;html=1;" parent="WIyWlLk6GJQsqaUBKTNV-1" source="QFqRmcgoc48EMrTDS77r-32" target="QFqRmcgoc48EMrTDS77r-37" edge="1">
          <mxGeometry relative="1" as="geometry" />
        </mxCell>
        <mxCell id="QFqRmcgoc48EMrTDS77r-32" value="&lt;div&gt;Placer des plantes&lt;/div&gt;" style="triangle;whiteSpace=wrap;html=1;" parent="WIyWlLk6GJQsqaUBKTNV-1" vertex="1">
          <mxGeometry x="750" y="10" width="60" height="80" as="geometry" />
        </mxCell>
        <mxCell id="QFqRmcgoc48EMrTDS77r-33" value="" style="edgeStyle=orthogonalEdgeStyle;rounded=0;orthogonalLoop=1;jettySize=auto;html=1;" parent="WIyWlLk6GJQsqaUBKTNV-1" source="QFqRmcgoc48EMrTDS77r-34" target="QFqRmcgoc48EMrTDS77r-38" edge="1">
          <mxGeometry relative="1" as="geometry" />
        </mxCell>
        <mxCell id="QFqRmcgoc48EMrTDS77r-34" value="&lt;div&gt;Faire grandir les plantes&lt;/div&gt;" style="triangle;whiteSpace=wrap;html=1;" parent="WIyWlLk6GJQsqaUBKTNV-1" vertex="1">
          <mxGeometry x="840" y="10" width="60" height="80" as="geometry" />
        </mxCell>
        <mxCell id="QFqRmcgoc48EMrTDS77r-35" value="" style="edgeStyle=orthogonalEdgeStyle;rounded=0;orthogonalLoop=1;jettySize=auto;html=1;" parent="WIyWlLk6GJQsqaUBKTNV-1" source="QFqRmcgoc48EMrTDS77r-36" target="QFqRmcgoc48EMrTDS77r-39" edge="1">
          <mxGeometry relative="1" as="geometry" />
        </mxCell>
        <mxCell id="QFqRmcgoc48EMrTDS77r-36" value="&lt;div&gt;Récolter les plantes ou&lt;br&gt;Garder les bonus&lt;/div&gt;" style="triangle;whiteSpace=wrap;html=1;" parent="WIyWlLk6GJQsqaUBKTNV-1" vertex="1">
          <mxGeometry x="930" y="10" width="60" height="80" as="geometry" />
        </mxCell>
        <mxCell id="QFqRmcgoc48EMrTDS77r-37" value="Placement sur une grille" style="rhombus;whiteSpace=wrap;html=1;" parent="WIyWlLk6GJQsqaUBKTNV-1" vertex="1">
          <mxGeometry x="740" y="125" width="80" height="80" as="geometry" />
        </mxCell>
        <mxCell id="QFqRmcgoc48EMrTDS77r-38" value="&lt;div&gt;Irriguer&lt;/div&gt;" style="rhombus;whiteSpace=wrap;html=1;" parent="WIyWlLk6GJQsqaUBKTNV-1" vertex="1">
          <mxGeometry x="830" y="125" width="80" height="80" as="geometry" />
        </mxCell>
        <mxCell id="QFqRmcgoc48EMrTDS77r-39" value="&lt;div&gt;Récolter : change le type de sol&lt;/div&gt;" style="rhombus;whiteSpace=wrap;html=1;" parent="WIyWlLk6GJQsqaUBKTNV-1" vertex="1">
          <mxGeometry x="920" y="125" width="80" height="80" as="geometry" />
        </mxCell>
        <mxCell id="OX3ee-QgY27DxvNO8J1W-4" style="edgeStyle=orthogonalEdgeStyle;rounded=0;orthogonalLoop=1;jettySize=auto;html=1;exitX=1;exitY=0.5;exitDx=0;exitDy=0;" parent="WIyWlLk6GJQsqaUBKTNV-1" source="OX3ee-QgY27DxvNO8J1W-0" target="OX3ee-QgY27DxvNO8J1W-1" edge="1">
          <mxGeometry relative="1" as="geometry" />
        </mxCell>
        <mxCell id="OX3ee-QgY27DxvNO8J1W-5" style="edgeStyle=orthogonalEdgeStyle;rounded=0;orthogonalLoop=1;jettySize=auto;html=1;entryX=0.5;entryY=0;entryDx=0;entryDy=0;" parent="WIyWlLk6GJQsqaUBKTNV-1" source="OX3ee-QgY27DxvNO8J1W-0" target="OX3ee-QgY27DxvNO8J1W-2" edge="1">
          <mxGeometry relative="1" as="geometry" />
        </mxCell>
        <mxCell id="OX3ee-QgY27DxvNO8J1W-6" style="edgeStyle=orthogonalEdgeStyle;rounded=0;orthogonalLoop=1;jettySize=auto;html=1;" parent="WIyWlLk6GJQsqaUBKTNV-1" source="OX3ee-QgY27DxvNO8J1W-0" target="OX3ee-QgY27DxvNO8J1W-3" edge="1">
          <mxGeometry relative="1" as="geometry" />
        </mxCell>
        <mxCell id="OX3ee-QgY27DxvNO8J1W-9" style="edgeStyle=orthogonalEdgeStyle;rounded=0;orthogonalLoop=1;jettySize=auto;html=1;entryX=0.5;entryY=1;entryDx=0;entryDy=0;" parent="WIyWlLk6GJQsqaUBKTNV-1" source="OX3ee-QgY27DxvNO8J1W-0" target="OX3ee-QgY27DxvNO8J1W-8" edge="1">
          <mxGeometry relative="1" as="geometry" />
        </mxCell>
        <mxCell id="OX3ee-QgY27DxvNO8J1W-0" value="&lt;div&gt;Biômes&lt;/div&gt;&lt;div&gt;&lt;br&gt;&lt;/div&gt;&lt;div&gt;(Tiles)&lt;/div&gt;" style="whiteSpace=wrap;html=1;aspect=fixed;" parent="WIyWlLk6GJQsqaUBKTNV-1" vertex="1">
          <mxGeometry x="504.25" y="760" width="80" height="80" as="geometry" />
        </mxCell>
        <mxCell id="OX3ee-QgY27DxvNO8J1W-1" value="Stone" style="rounded=1;whiteSpace=wrap;html=1;" parent="WIyWlLk6GJQsqaUBKTNV-1" vertex="1">
          <mxGeometry x="610" y="870" width="120" height="60" as="geometry" />
        </mxCell>
        <mxCell id="OX3ee-QgY27DxvNO8J1W-2" value="Sand" style="rounded=1;whiteSpace=wrap;html=1;" parent="WIyWlLk6GJQsqaUBKTNV-1" vertex="1">
          <mxGeometry x="760" y="870" width="120" height="60" as="geometry" />
        </mxCell>
        <mxCell id="OX3ee-QgY27DxvNO8J1W-3" value="Earth" style="rounded=1;whiteSpace=wrap;html=1;" parent="WIyWlLk6GJQsqaUBKTNV-1" vertex="1">
          <mxGeometry x="910" y="870" width="120" height="60" as="geometry" />
        </mxCell>
        <mxCell id="OX3ee-QgY27DxvNO8J1W-8" value="Water&lt;br&gt;(Obstacle)" style="rounded=1;whiteSpace=wrap;html=1;" parent="WIyWlLk6GJQsqaUBKTNV-1" vertex="1">
          <mxGeometry x="910" y="690" width="120" height="60" as="geometry" />
        </mxCell>
        <mxCell id="OX3ee-QgY27DxvNO8J1W-15" value="&lt;div&gt;Pollution&lt;/div&gt;&lt;div&gt;Level ?&lt;/div&gt;" style="ellipse;whiteSpace=wrap;html=1;aspect=fixed;" parent="WIyWlLk6GJQsqaUBKTNV-1" vertex="1">
          <mxGeometry x="1010" y="680" width="80" height="80" as="geometry" />
        </mxCell>
        <mxCell id="OX3ee-QgY27DxvNO8J1W-28" value="" style="endArrow=classic;html=1;rounded=0;" edge="1" parent="WIyWlLk6GJQsqaUBKTNV-1">
          <mxGeometry width="50" height="50" relative="1" as="geometry">
            <mxPoint x="939.66" y="970" as="sourcePoint" />
            <mxPoint x="939.66" y="990" as="targetPoint" />
          </mxGeometry>
        </mxCell>
        <mxCell id="9BGeH49eqrdHwqwy5LLH-2" value="" style="edgeStyle=orthogonalEdgeStyle;rounded=0;orthogonalLoop=1;jettySize=auto;html=1;" edge="1" parent="WIyWlLk6GJQsqaUBKTNV-1" source="9BGeH49eqrdHwqwy5LLH-0" target="9BGeH49eqrdHwqwy5LLH-1">
          <mxGeometry relative="1" as="geometry" />
        </mxCell>
        <mxCell id="OX3ee-QgY27DxvNO8J1W-29" value="" style="endArrow=classic;html=1;rounded=0;" edge="1" parent="WIyWlLk6GJQsqaUBKTNV-1">
          <mxGeometry width="50" height="50" relative="1" as="geometry">
            <mxPoint x="999.66" y="970" as="sourcePoint" />
            <mxPoint x="999.66" y="990" as="targetPoint" />
          </mxGeometry>
        </mxCell>
        <mxCell id="9BGeH49eqrdHwqwy5LLH-3" value="" style="edgeStyle=orthogonalEdgeStyle;rounded=0;orthogonalLoop=1;jettySize=auto;html=1;" edge="1" parent="WIyWlLk6GJQsqaUBKTNV-1" source="9BGeH49eqrdHwqwy5LLH-0" target="9BGeH49eqrdHwqwy5LLH-1">
          <mxGeometry relative="1" as="geometry" />
        </mxCell>
        <mxCell id="OX3ee-QgY27DxvNO8J1W-30" value="" style="endArrow=classic;html=1;rounded=0;exitX=0.5;exitY=1;exitDx=0;exitDy=0;" edge="1" parent="WIyWlLk6GJQsqaUBKTNV-1">
          <mxGeometry relative="1" as="geometry">
            <mxPoint x="969.66" y="930" as="sourcePoint" />
            <mxPoint x="969.66" y="990" as="targetPoint" />
          </mxGeometry>
        </mxCell>
        <mxCell id="OX3ee-QgY27DxvNO8J1W-31" value="&lt;div&gt;branches&lt;/div&gt;&lt;div&gt;(plants cult.)&lt;/div&gt;" style="edgeLabel;resizable=0;html=1;;align=center;verticalAlign=middle;" connectable="0" vertex="1" parent="OX3ee-QgY27DxvNO8J1W-30">
          <mxGeometry relative="1" as="geometry" />
        </mxCell>
        <mxCell id="9BGeH49eqrdHwqwy5LLH-5" value="" style="edgeStyle=orthogonalEdgeStyle;rounded=0;orthogonalLoop=1;jettySize=auto;html=1;" edge="1" parent="WIyWlLk6GJQsqaUBKTNV-1" source="9BGeH49eqrdHwqwy5LLH-0" target="QFqRmcgoc48EMrTDS77r-15">
          <mxGeometry relative="1" as="geometry" />
        </mxCell>
        <mxCell id="OX3ee-QgY27DxvNO8J1W-36" value="For builds" style="rhombus;whiteSpace=wrap;html=1;" vertex="1" parent="WIyWlLk6GJQsqaUBKTNV-1">
          <mxGeometry x="630" y="920" width="80" height="80" as="geometry" />
        </mxCell>
        <mxCell id="9BGeH49eqrdHwqwy5LLH-0" value="&lt;div&gt;Maintenance&lt;/div&gt;" style="triangle;whiteSpace=wrap;html=1;" vertex="1" parent="WIyWlLk6GJQsqaUBKTNV-1">
          <mxGeometry x="200" y="10" width="60" height="80" as="geometry" />
        </mxCell>
        <mxCell id="OX3ee-QgY27DxvNO8J1W-37" value="For Barrier" style="rhombus;whiteSpace=wrap;html=1;" vertex="1" parent="WIyWlLk6GJQsqaUBKTNV-1">
          <mxGeometry x="760" y="920" width="80" height="80" as="geometry" />
        </mxCell>
        <mxCell id="9BGeH49eqrdHwqwy5LLH-1" value="&lt;div&gt;Recharger les sort&lt;/div&gt;" style="rhombus;whiteSpace=wrap;html=1;" vertex="1" parent="WIyWlLk6GJQsqaUBKTNV-1">
          <mxGeometry x="230" y="130" width="80" height="80" as="geometry" />
        </mxCell>
        <mxCell id="OX3ee-QgY27DxvNO8J1W-38" value="" style="endArrow=classic;html=1;rounded=0;exitX=0.834;exitY=1.001;exitDx=0;exitDy=0;exitPerimeter=0;" edge="1" parent="WIyWlLk6GJQsqaUBKTNV-1" source="OX3ee-QgY27DxvNO8J1W-2">
          <mxGeometry relative="1" as="geometry">
            <mxPoint x="720" y="840" as="sourcePoint" />
            <mxPoint x="860" y="1000" as="targetPoint" />
          </mxGeometry>
        </mxCell>
        <mxCell id="OX3ee-QgY27DxvNO8J1W-39" value="+ Plants" style="edgeLabel;resizable=0;html=1;;align=center;verticalAlign=middle;" connectable="0" vertex="1" parent="OX3ee-QgY27DxvNO8J1W-38">
          <mxGeometry relative="1" as="geometry" />
        </mxCell>
        <mxCell id="9BGeH49eqrdHwqwy5LLH-6" value="Les batiments ont une production relative aux tiles alentours&lt;br&gt;Conditions de production, Pollution accrue, Defense accrue..." style="whiteSpace=wrap;html=1;aspect=fixed;" vertex="1" parent="WIyWlLk6GJQsqaUBKTNV-1">
          <mxGeometry x="334.25" y="570" width="130" height="130" as="geometry" />
        </mxCell>
      </root>
    </mxGraphModel>
  </diagram>
</mxfile>
